<svg xmlns="http://www.w3.org/2000/svg" width="200" height="200" class="icon" viewBox="0 0 1024 1024"><defs><style/></defs><path d="M512 85.333C276.48 85.333 85.333 276.48 85.333 512c0 188.587 122.454 348.587 291.84 405.333 21.334 3.414 28.16-9.813 28.16-21.333v-72.107c-118.186 25.6-143.36-57.173-143.36-57.173-19.626-49.493-47.36-62.72-47.36-62.72-38.826-26.453 2.987-25.6 2.987-25.6 42.667 2.987 65.28 43.947 65.28 43.947C320 787.2 382.72 768 407.04 757.76c3.84-27.733 14.933-46.507 26.88-57.173-94.72-10.667-194.133-47.36-194.133-209.92 0-47.36 16.213-85.334 43.946-115.627-4.266-10.667-19.2-55.04 4.267-112.64 0 0 35.84-11.52 117.333 43.52 33.707-9.387 70.4-14.08 106.667-14.08 36.267 0 72.96 4.693 106.667 14.08C700.16 250.88 736 262.4 736 262.4c23.467 57.6 8.533 101.973 4.267 112.64 27.733 30.293 43.946 68.267 43.946 115.627 0 162.986-99.84 198.826-194.986 209.493 15.36 13.227 29.44 39.253 29.44 78.933V896c0 11.52 6.826 25.173 28.586 21.333C816.64 860.16 938.667 700.587 938.667 512 938.667 276.48 747.52 85.333 512 85.333z"/></svg>